<svg xmlns="http://www.w3.org/2000/svg" viewBox="0 0 256 256" role="img" aria-label="Sly Coyote">
  <defs>
    <linearGradient id="bg" x1="0" y1="0" x2="1" y2="1"><stop offset="0%" stop-color="#f59e0b" stop-opacity="0.33"/><stop offset="100%" stop-color="#60a5fa" stop-opacity="0.30"/></linearGradient>
    <linearGradient id="shirt" x1="0" y1="0" x2="1" y2="1"><stop offset="0%" stop-color="#f59e0b"/><stop offset="100%" stop-color="#60a5fa"/></linearGradient>
  </defs>
  <rect width="256" height="256" rx="52" fill="#0b1020"/>
  <rect x="8" y="8" width="240" height="240" rx="46" fill="url(#bg)"/>
  <path d="M95 58l-16-20 6 26z" fill="#f4b183"/><path d="M161 58l16-20-6 26z" fill="#f4b183"/><path d="M95 57l-8-10 3 13z" fill="#fce7f3"/><path d="M161 57l8-10-3 13z" fill="#fce7f3"/>
  <ellipse cx="128" cy="78" rx="56" ry="12" fill="#f59e0b"/><path d="M96 56h64l-7 24h-50z" fill="#60a5fa"/>
  <circle cx="128" cy="96" r="40" fill="#f4b183"/>
  <ellipse cx="128" cy="112" rx="20" ry="14" fill="#fce7f3"/>
  <circle cx="112" cy="92" r="5" fill="#0f172a"/>
  <circle cx="144" cy="92" r="5" fill="#0f172a"/>
  <circle cx="128" cy="110" r="4" fill="#111827"/>
  <path d="M112 122c7 6 25 6 32 0" fill="none" stroke="#0f172a" stroke-width="3.5" stroke-linecap="round"/>
  <path d="M56 230c6-40 33-66 72-66s66 26 72 66" fill="url(#shirt)"/>
  <circle cx="128" cy="186" r="24" fill="#050816"/>
  <circle cx="128" cy="186" r="20" fill="none" stroke="#22d3ee" stroke-width="2" opacity="0.9"/>
  <text x="128" y="182" text-anchor="middle" font-family="Arial, sans-serif" font-size="7.5" fill="#67e8f9" letter-spacing="1.4">FOCO</text>
  <text x="128" y="191" text-anchor="middle" font-family="Arial, sans-serif" font-size="6.6" fill="#f472b6" letter-spacing="1.1">AFTER DARK</text>
  <rect x="174" y="160" width="30" height="30" rx="6" fill="#fef3c7"/><rect x="176" y="172" width="26" height="16" rx="4" fill="#d97706"/>
  <rect x="14" y="14" width="92" height="22" rx="11" fill="#020617" opacity="0.58"/>
  <text x="60" y="29" text-anchor="middle" font-family="Arial, sans-serif" font-size="9" fill="#e2e8f0" letter-spacing="0.8">SLY COYOTE</text>
</svg>