<svg xmlns="http://www.w3.org/2000/svg" viewBox="0 0 256 256" role="img" aria-label="VIP Penguin">
  <defs>
    <linearGradient id="bg" x1="0" y1="0" x2="1" y2="1"><stop offset="0%" stop-color="#67e8f9" stop-opacity="0.33"/><stop offset="100%" stop-color="#f472b6" stop-opacity="0.30"/></linearGradient>
    <linearGradient id="shirt" x1="0" y1="0" x2="1" y2="1"><stop offset="0%" stop-color="#67e8f9"/><stop offset="100%" stop-color="#f472b6"/></linearGradient>
  </defs>
  <rect width="256" height="256" rx="52" fill="#0b1020"/>
  <rect x="8" y="8" width="240" height="240" rx="46" fill="url(#bg)"/>
  
  <rect x="106" y="44" width="44" height="28" rx="4" fill="#67e8f9"/><ellipse cx="128" cy="72" rx="40" ry="8" fill="#f472b6"/>
  <circle cx="128" cy="96" r="40" fill="#111827"/>
  <ellipse cx="128" cy="110" rx="22" ry="16" fill="#fbbf24"/>
  <circle cx="112" cy="92" r="5" fill="#f8fafc"/>
  <circle cx="144" cy="92" r="5" fill="#f8fafc"/>
  <circle cx="128" cy="110" r="4" fill="#111827"/>
  <path d="M112 122c7 6 25 6 32 0" fill="none" stroke="#0f172a" stroke-width="3.5" stroke-linecap="round"/>
  <path d="M56 230c6-40 33-66 72-66s66 26 72 66" fill="url(#shirt)"/>
  <circle cx="128" cy="186" r="24" fill="#050816"/>
  <circle cx="128" cy="186" r="20" fill="none" stroke="#22d3ee" stroke-width="2" opacity="0.9"/>
  <text x="128" y="182" text-anchor="middle" font-family="Arial, sans-serif" font-size="7.5" fill="#67e8f9" letter-spacing="1.4">FOCO</text>
  <text x="128" y="191" text-anchor="middle" font-family="Arial, sans-serif" font-size="6.6" fill="#f472b6" letter-spacing="1.1">AFTER DARK</text>
  <rect x="182" y="152" width="12" height="30" rx="6" fill="#fde68a"/><rect x="184" y="182" width="8" height="14" rx="3" fill="#e2e8f0"/><rect x="178" y="196" width="20" height="4" rx="2" fill="#cbd5e1"/>
  <rect x="14" y="14" width="92" height="22" rx="11" fill="#020617" opacity="0.58"/>
  <text x="60" y="29" text-anchor="middle" font-family="Arial, sans-serif" font-size="9" fill="#e2e8f0" letter-spacing="0.8">VIP PENGUIN</text>
</svg>