<svg xmlns="http://www.w3.org/2000/svg" viewBox="0 0 256 256" role="img" aria-label="Tequila Toucan">
  <defs>
    <linearGradient id="bg" x1="0" y1="0" x2="1" y2="1"><stop offset="0%" stop-color="#22d3ee" stop-opacity="0.34"/><stop offset="100%" stop-color="#ec4899" stop-opacity="0.30"/></linearGradient>
    <linearGradient id="shirt" x1="0" y1="0" x2="1" y2="1"><stop offset="0%" stop-color="#22d3ee"/><stop offset="100%" stop-color="#ec4899"/></linearGradient>
  </defs>
  <rect width="256" height="256" rx="52" fill="#0b1020"/>
  <rect x="8" y="8" width="240" height="240" rx="46" fill="url(#bg)"/>
  <path d="M92 62c0-10 10-18 22-18h28c12 0 22 8 22 18" fill="#facc15"/>
  <rect x="106" y="44" width="44" height="28" rx="4" fill="#22d3ee"/><ellipse cx="128" cy="72" rx="40" ry="8" fill="#ec4899"/>
  <circle cx="128" cy="96" r="40" fill="#facc15"/>
  <ellipse cx="128" cy="112" rx="24" ry="14" fill="#f59e0b"/>
  <circle cx="112" cy="92" r="5" fill="#0f172a"/>
  <circle cx="144" cy="92" r="5" fill="#0f172a"/>
  <circle cx="128" cy="110" r="4" fill="#111827"/>
  <path d="M112 122c7 6 25 6 32 0" fill="none" stroke="#0f172a" stroke-width="3.5" stroke-linecap="round"/>
  
  <path d="M56 230c6-40 33-66 72-66s66 26 72 66" fill="url(#shirt)"/>
  <rect x="84" y="176" width="88" height="48" rx="13" fill="#0b1220" opacity="0.9"/>
  <text x="128" y="194" text-anchor="middle" font-family="Arial, sans-serif" font-size="7.2" font-weight="700" fill="#67e8f9" stroke="#060b18" stroke-width="0.7" letter-spacing="0.10">FoCo</text>
  <text x="128" y="204" text-anchor="middle" font-family="Arial, sans-serif" font-size="5.4" font-weight="700" fill="#f472b6" stroke="#060b18" stroke-width="0.6" letter-spacing="0.08">AFTER DARK</text>
  <rect x="176" y="152" width="24" height="42" rx="8" fill="#e0f2fe"/><rect x="178" y="166" width="20" height="26" rx="6" fill="#38bdf8" opacity="0.88"/>
</svg>
